<svg class="border shadow-md" viewBox="0 0 1351.68 760.32" style="width: 1351.68px; height: 760.32px;" xmlns="http://www.w3.org/2000/svg" preserveAspectRatio="none"><rect class="bg" id="bg" x="0" y="0" width="1351.68" height="760.32" fill="#ffffff"/><g transform="rotate(0 675.84 380.16)"><path id="-1" d="M -775.84 -65.04 S -514.00 -112.56&#10;            0.00 -65.04 377.92 -112.56&#10;            775.84 -65.04 1153.76 -159.04&#10;            1551.68 -65.04 1929.60 -112.56&#10;            2327.52 -65.04 h 110 V 960.32 H -775.84 Z" fill="#527488"/><path id="0" d="M -775.84 30.00 S -397.92 -17.52&#10;            0.00 30.00 377.92 -60.00&#10;            775.84 30.00 1014.68 -17.52&#10;            1551.68 30.00 1929.60 -57.00&#10;            2327.52 30.00 h 110 V 960.32 H -775.84 Z" fill="#607f91"/><path id="1" d="M -775.84 125.04 S -397.92 77.52&#10;            0.00 125.04 377.92 77.52&#10;            775.84 125.04 1153.76 77.52&#10;            1551.68 125.04 1929.60 77.52&#10;            2327.52 125.04 h 110 V 960.32 H -775.84 Z" fill="#6e8a9a"/><path id="2" d="M -775.84 220.08 S -465.00 172.56&#10;            0.00 220.08 377.92 172.08&#10;            775.84 220.08 1153.76 130.08&#10;            1551.68 220.08 1927.52 172.56&#10;            2327.52 220.08 h 110 V 960.32 H -775.84 Z" fill="#7c95a3"/><path id="3" d="M -775.84 315.12 S -666.00 238.12&#10;            0.00 315.12 92.84 242.12&#10;            775.84 315.12 1153.76 264.12&#10;            1551.68 315.12 1929.60 267.60&#10;            2327.52 315.12 h 110 V 960.32 H -775.84 Z" fill="#8aa0ac"/><path id="4" d="M -775.84 410.16 S -397.92 321.16&#10;            0.00 410.16 377.92 321.16&#10;            775.84 410.16 1153.76 362.64&#10;            1551.68 410.16 1929.60 322.16&#10;            2327.52 410.16 h 110 V 960.32 H -775.84 Z" fill="#98abb5"/><path id="5" d="M -775.84 505.20 S -704.00 457.68&#10;            0.00 505.20 377.92 416.20&#10;            775.84 505.20 1153.76 457.68&#10;            1551.68 505.20 1865.52 457.20&#10;            2327.52 505.20 h 110 V 960.32 H -775.84 Z" fill="#a6b6be"/><path id="6" d="M -775.84 600.24 S -397.92 552.72&#10;            0.00 600.24 377.92 552.72&#10;            775.84 600.24 1153.76 528.24&#10;            1551.68 600.24 1929.60 510.24&#10;            2327.52 600.24 h 110 V 960.32 H -775.84 Z" fill="#b4c1c7"/><path id="7" d="M -775.84 695.28 S -397.92 624.28&#10;            0.00 695.28 222.84 647.76&#10;            775.84 695.28 787.68 647.76&#10;            1551.68 695.28 1545.52 647.76&#10;            2327.52 695.28 h 110 V 960.32 H -775.84 Z" fill="#c2ccd0"/></g></svg>