<svg class="border shadow-md" viewBox="0 0 1351.68 760.32" style="width: 1351.68px; height: 760.32px;" xmlns="http://www.w3.org/2000/svg" preserveAspectRatio="none"><rect class="bg" id="bg" x="0" y="0" width="1351.68" height="760.32" fill="#ffffff"/><g transform="rotate(0 675.84 380.16)"><path id="-1" d="M -775.84 -65.04 S -397.92 -128.04&#10;            0.00 -65.04 377.92 -112.56&#10;            775.84 -65.04 1153.76 -112.56&#10;            1551.68 -65.04 1929.60 -136.04&#10;            2327.52 -65.04 h 110 V 960.32 H -775.84 Z" fill="#4F4D4B"/><path id="0" d="M -775.84 30.00 S -774.00 -17.52&#10;            0.00 30.00 377.92 -17.52&#10;            775.84 30.00 1153.76 -64.00&#10;            1551.68 30.00 1579.52 -17.52&#10;            2327.52 30.00 h 110 V 960.32 H -775.84 Z" fill="#5b5957"/><path id="1" d="M -775.84 125.04 S -397.92 77.52&#10;            0.00 125.04 377.92 72.04&#10;            775.84 125.04 814.68 77.52&#10;            1551.68 125.04 1849.52 77.52&#10;            2327.52 125.04 h 110 V 960.32 H -775.84 Z" fill="#676563"/><path id="2" d="M -775.84 220.08 S -397.92 133.08&#10;            0.00 220.08 377.92 148.08&#10;            775.84 220.08 920.68 137.08&#10;            1551.68 220.08 1929.60 139.08&#10;            2327.52 220.08 h 110 V 960.32 H -775.84 Z" fill="#73716f"/><path id="3" d="M -775.84 315.12 S -613.00 267.60&#10;            0.00 315.12 377.92 267.60&#10;            775.84 315.12 1153.76 243.12&#10;            1551.68 315.12 1684.52 267.60&#10;            2327.52 315.12 h 110 V 960.32 H -775.84 Z" fill="#7f7d7b"/><path id="4" d="M -775.84 410.16 S -782.00 362.64&#10;            0.00 410.16 377.92 362.64&#10;            775.84 410.16 955.68 316.16&#10;            1551.68 410.16 1690.52 362.64&#10;            2327.52 410.16 h 110 V 960.32 H -775.84 Z" fill="#8b8987"/><path id="5" d="M -775.84 505.20 S -655.00 457.68&#10;            0.00 505.20 377.92 457.68&#10;            775.84 505.20 1153.76 429.20&#10;            1551.68 505.20 1706.52 415.20&#10;            2327.52 505.20 h 110 V 960.32 H -775.84 Z" fill="#979593"/><path id="6" d="M -775.84 600.24 S -397.92 507.24&#10;            0.00 600.24 377.92 552.72&#10;            775.84 600.24 1049.68 552.72&#10;            1551.68 600.24 1689.52 528.24&#10;            2327.52 600.24 h 110 V 960.32 H -775.84 Z" fill="#a3a19f"/><path id="7" d="M -775.84 695.28 S -397.92 647.76&#10;            0.00 695.28 377.92 647.76&#10;            775.84 695.28 1153.76 647.76&#10;            1551.68 695.28 1929.60 614.28&#10;            2327.52 695.28 h 110 V 960.32 H -775.84 Z" fill="#afadab"/></g></svg>