<svg width="238" height="75" viewBox="0 0 238 75" fill="none" xmlns="http://www.w3.org/2000/svg">
<path d="M125.434 19.3919C125.434 22.0463 123.277 24.1836 120.6 24.1836C117.923 24.1836 115.767 22.0463 115.767 19.3919C115.767 16.7376 117.849 14.6002 120.6 14.6002C123.352 14.6739 125.434 16.8119 125.434 19.3919ZM105.507 29.0505V30.2303C105.507 30.2303 103.203 27.2799 98.2953 27.2799C90.1917 27.2799 83.8708 33.3995 83.8708 41.8774C83.8708 50.2824 90.1174 56.475 98.2953 56.475C103.277 56.475 105.507 53.4524 105.507 53.4524V54.7052C105.507 55.2951 105.954 55.7363 106.548 55.7363H112.57V28.0149H106.548C105.954 28.0171 105.507 28.5342 105.507 29.0505ZM105.507 46.8172C104.393 48.4397 102.161 49.8405 99.4852 49.8405C94.727 49.8405 91.083 46.8916 91.083 41.8774C91.083 36.864 94.727 33.9151 99.4852 33.9151C102.088 33.9151 104.467 35.3896 105.507 36.9377V46.8172ZM117.031 28.0171H124.169V55.7385H117.031V28.0171ZM223.651 27.2792C218.744 27.2792 216.438 30.2296 216.438 30.2296V14.6739H209.301V55.7385H215.324C215.919 55.7385 216.364 55.2222 216.364 54.7059V53.4531C216.364 53.4531 218.67 56.4757 223.576 56.4757C231.681 56.4757 238 50.2846 238 41.8796C238 33.4746 231.681 27.2792 223.651 27.2792ZM222.461 49.7662C219.709 49.7662 217.554 48.3668 216.438 46.7435V36.864C217.554 35.3896 219.933 33.8414 222.461 33.8414C227.22 33.8414 230.863 36.7904 230.863 41.8038C230.863 46.8172 227.22 49.7662 222.461 49.7662ZM205.584 39.2982V55.8121H198.446V40.1083C198.446 35.5383 196.959 33.6941 192.946 33.6941C190.791 33.6941 188.559 34.8004 187.145 36.4229V55.7392H180.009V28.0179H185.658C186.252 28.0179 186.699 28.5342 186.699 29.0505V30.2303C188.781 28.0915 191.531 27.2799 194.282 27.2799C197.405 27.2799 200.008 28.1659 202.09 29.935C204.617 31.9994 205.584 34.6531 205.584 39.2982ZM162.682 27.2792C157.776 27.2792 155.471 30.2296 155.471 30.2296V14.6739H148.334V55.7385H154.355C154.95 55.7385 155.397 55.2222 155.397 54.7059V53.4531C155.397 53.4531 157.702 56.4757 162.608 56.4757C170.713 56.4757 177.033 50.2846 177.033 41.8796C177.107 33.4739 170.787 27.2792 162.682 27.2792ZM161.492 49.7662C158.742 49.7662 156.587 48.3668 155.471 46.7435V36.864C156.587 35.3896 158.966 33.8414 161.492 33.8414C166.252 33.8414 169.895 36.7904 169.895 41.8038C169.895 46.8172 166.252 49.7662 161.492 49.7662ZM142.162 27.2792C144.318 27.2792 145.433 27.6489 145.433 27.6489V34.2097C145.433 34.2097 139.485 32.2189 135.768 36.4221V55.8114H128.63V28.0171H134.653C135.248 28.0171 135.693 28.5334 135.693 29.0497V30.2296C137.033 28.6807 139.932 27.2792 142.162 27.2792ZM68.0351 53.2314C67.6637 52.3469 67.2916 51.3887 66.9202 50.5771C66.3245 49.2506 65.7296 47.9963 65.2104 46.8172L65.1361 46.7435C60.0051 35.6842 54.5042 24.479 48.7039 13.4211L48.4811 12.9777C47.8711 11.8306 47.2766 10.6754 46.6978 9.51244C45.9535 8.18452 45.2107 6.78515 44.0208 5.45723C41.6418 2.50826 38.2213 0.885742 34.5788 0.885742C30.8606 0.885742 27.5152 2.50827 25.0626 5.3092C23.9469 6.63565 23.1284 8.03649 22.3857 9.36441C21.8054 10.5266 21.2109 11.6818 20.6023 12.8297L20.3787 13.273C14.6535 24.3309 9.07757 35.5369 3.94731 46.5955L3.8723 46.7421C3.35237 47.9234 2.75666 49.1762 2.16171 50.5019C1.79033 51.3135 1.41895 52.1981 1.04757 53.1563C0.0804889 55.8836 -0.217373 58.4643 0.155494 61.1194C0.973275 66.6491 4.69006 71.292 9.82106 73.3579C11.7545 74.1695 13.7622 74.5378 15.8434 74.5378C16.4383 74.5378 17.1811 74.4641 17.7768 74.3898C20.2309 74.0952 22.7585 73.285 25.2126 71.8841C28.2609 70.188 31.1606 67.756 34.4318 64.2171C37.7029 67.756 40.6769 70.188 43.651 71.8841C46.1058 73.285 48.6326 74.0952 51.086 74.3898C51.6809 74.4649 52.4252 74.5378 53.0201 74.5378C55.1021 74.5378 57.1833 74.1695 59.0417 73.3579C64.247 71.292 67.8895 66.5754 68.708 61.1194C69.2985 58.5394 69.0014 55.9602 68.0351 53.2314ZM34.5038 57.0649C30.4885 52.0515 27.8858 47.3335 26.9945 43.3534C26.6231 41.6572 26.5481 40.1827 26.7717 38.8556C26.9195 37.6757 27.3666 36.6431 27.9616 35.7585C29.3743 33.7692 31.7534 32.515 34.5046 32.515C37.2565 32.515 39.7099 33.6949 41.0483 35.7585C41.6433 36.6431 42.0889 37.6764 42.239 38.8556C42.461 40.1835 42.3868 41.7309 42.0154 43.3534C41.1204 47.2598 38.5177 51.9786 34.5038 57.0649ZM64.1683 60.5302C63.6483 64.3637 61.0457 67.6824 57.4032 69.1569C55.6191 69.8934 53.6849 70.115 51.753 69.8934C49.8946 69.6717 48.0347 69.0817 46.1028 67.977C43.4259 66.501 40.7497 64.2171 37.6264 60.8248C42.5331 54.8539 45.5071 49.3972 46.6227 44.5326C47.1434 42.2464 47.2184 40.1827 46.9941 38.2649C46.6978 36.4221 46.0278 34.726 44.9872 33.2515C42.6809 29.9328 38.8141 28.0171 34.5031 28.0171C30.1921 28.0171 26.3253 30.0079 24.0205 33.2515C22.9799 34.726 22.3099 36.4221 22.0128 38.2649C21.7157 40.1827 21.7892 42.3201 22.3842 44.5326C23.499 49.3972 26.5474 54.9269 31.3798 60.8984C28.3315 64.2901 25.5803 66.5762 22.9033 68.0507C20.9699 69.1569 19.1123 69.7468 17.2539 69.967C15.247 70.1887 13.3128 69.8934 11.603 69.2305C7.96046 67.756 5.35782 64.4373 4.83788 60.6038C4.61505 58.7611 4.76286 56.9184 5.50711 54.8539C5.7292 54.1159 6.10206 53.3795 6.47344 52.4949C6.99412 51.315 7.58759 50.0608 8.18328 48.808L8.25831 48.6614C13.3878 37.6757 18.8895 26.4697 24.6147 15.5591L24.8375 15.1158C25.4332 14.011 26.0282 12.8311 26.6224 11.7249C27.2173 10.545 27.8858 9.43878 28.7043 8.47985C30.2656 6.71224 32.3468 5.75257 34.6524 5.75257C36.9579 5.75257 39.0391 6.71224 40.6004 8.47985C41.419 9.44099 42.0874 10.5472 42.6824 11.7249C43.2781 12.8311 43.873 14.011 44.4665 15.1158L44.6901 15.5591C50.328 26.5151 55.7566 37.5757 60.9729 48.7351V48.8087C61.5686 49.9901 62.0885 51.3158 62.6835 52.4971C63.0549 53.3802 63.427 54.1167 63.6498 54.8547C64.2433 56.7696 64.4661 58.6138 64.1683 60.5302Z" fill="#2F2D2D"/>
</svg>
