<svg width="272" height="46" viewBox="0 0 272 46" fill="none" xmlns="http://www.w3.org/2000/svg">
<g clip-path="url(#clip0_14_320)">
<path d="M106.823 4.68324C106.823 3.59498 107.257 2.55129 108.028 1.78178C108.8 1.01226 109.847 0.579948 110.938 0.579948C112.03 0.579948 113.076 1.01226 113.848 1.78178C114.62 2.55129 115.053 3.59498 115.053 4.68324C115.014 5.74501 114.563 6.75007 113.795 7.48723C113.028 8.22438 112.004 8.63623 110.938 8.63623C109.873 8.63623 108.849 8.22438 108.081 7.48723C107.314 6.75007 106.863 5.74501 106.823 4.68324Z" fill="#2F2D2D"/>
<path d="M171.749 32.0493C171.749 29.7719 173.589 27.9317 175.855 27.9317C176.95 27.9317 177.999 28.3652 178.773 29.1369C179.547 29.9085 179.982 30.9551 179.982 32.0464C179.982 33.1377 179.547 34.1843 178.773 34.956C177.999 35.7276 176.95 36.1611 175.855 36.1611C173.592 36.1611 171.749 34.3181 171.749 32.0464" fill="#2F2D2D"/>
<path d="M39.2898 30.269C35.7479 30.269 33.2835 27.463 33.2835 23.4511C33.2835 19.4422 35.7478 16.639 39.2926 16.639C42.8545 16.639 45.3447 19.4422 45.3447 23.4511C45.3447 27.5259 42.909 30.269 39.2898 30.269ZM39.2898 10.6469C31.7934 10.6469 26.3516 16.0332 26.3516 23.4511C26.3516 30.8719 31.7962 36.2554 39.2898 36.2554C46.8177 36.2554 52.2794 30.8719 52.2794 23.454C52.2794 16.0332 46.8176 10.6469 39.2926 10.6469M98.8539 24.0941C98.593 23.5909 98.2633 23.1264 97.8739 22.7139L97.6446 22.4768L97.8855 22.2482C98.2294 21.8853 98.5817 21.4567 98.9199 20.9595L105.539 11.1527H97.5044L92.5324 18.8249C92.2516 19.2364 91.6843 19.4422 90.8333 19.4422H89.7013V4.93775C89.7013 2.03745 87.8874 1.64312 85.9302 1.64312H82.5774L82.5859 35.8782H89.7041V25.6085H90.3719C91.1828 25.6085 91.7329 25.7028 91.988 26.1429L95.9138 33.5322C97.0113 35.5381 98.1031 35.8782 100.161 35.8782H105.614L101.551 29.1803L98.8569 24.0941M133.407 10.5898C129.785 10.5898 127.476 12.1957 126.18 13.553L125.751 13.9873L125.596 13.3958C125.217 11.9414 123.934 11.1441 122.005 11.1441H118.816L118.836 35.8696H125.905V24.4741C125.905 23.3597 126.048 22.3939 126.346 21.5109C127.132 18.8392 129.327 17.1791 132.069 17.1791C134.276 17.1791 135.138 18.342 135.138 21.3424V32.1121C135.138 34.6723 136.327 35.8696 138.898 35.8696H142.262L142.251 20.1422C142.251 13.8959 139.193 10.5926 133.407 10.5926M111.024 11.1527H107.674L107.697 30.2719V35.8782H111.271L111.397 35.8839L113.065 35.8782H114.721V35.8696H114.732L114.747 14.9102C114.747 12.3814 113.535 11.1556 111.027 11.1556M67.0544 30.269C63.5126 30.269 61.0453 27.463 61.0453 23.4511C61.0453 19.4422 63.5127 16.639 67.0574 16.639C70.6107 16.639 73.1096 19.4422 73.1096 23.4511C73.1096 27.5259 70.6738 30.269 67.0574 30.269H67.0544ZM67.0544 10.6469C59.5523 10.6469 54.1077 16.0332 54.1077 23.4511C54.1077 30.8719 59.5524 36.2554 67.0574 36.2554C74.5739 36.2554 80.047 30.8719 80.047 23.454C80.047 16.0332 74.5739 10.6469 67.0574 10.6469" fill="#2F2D2D"/>
<path d="M218.573 30.269C215.031 30.269 212.561 27.463 212.561 23.4511C212.561 19.4422 215.031 16.639 218.573 16.639C222.132 16.639 224.628 19.4422 224.628 23.4511C224.628 27.5259 222.192 30.269 218.573 30.269ZM218.573 10.6469C211.071 10.6469 205.629 16.0332 205.629 23.4511C205.629 30.8719 211.071 36.2554 218.573 36.2554C226.093 36.2554 231.563 30.8719 231.563 23.454C231.563 16.0332 226.09 10.6469 218.573 10.6469Z" fill="#2F2D2D"/>
<path d="M157.155 29.1803C153.289 29.1803 151.914 25.8199 151.914 22.6681C151.914 21.2794 152.266 16.7561 156.785 16.7561C159.029 16.7561 162.017 17.3962 162.017 22.8996C162.017 28.0916 159.373 29.1803 157.155 29.1803ZM165.688 11.0869C164.347 11.0869 163.316 11.6213 162.797 12.5956L162.602 12.9728L162.275 12.6871C161.135 11.7041 159.089 10.5354 155.768 10.5354C149.157 10.5354 144.707 15.4874 144.707 22.851C144.707 30.2118 149.312 35.3552 155.9 35.3552C158.149 35.3552 159.928 34.8294 161.338 33.7665L161.883 33.3579V34.0436C161.883 37.3469 159.742 39.1699 155.859 39.1699C153.971 39.1699 152.255 38.7127 151.103 38.2955C149.607 37.844 148.724 38.2184 148.119 39.7185L147.558 41.1015L146.764 43.1246L147.254 43.3846C149.741 44.6991 152.977 45.4849 155.9 45.4849C161.917 45.4849 168.949 42.4131 168.949 33.7665L168.975 11.0869H165.688Z" fill="#2F2D2D"/>
<path d="M12.9663 29.9862L7.21215 29.9805V23.1226C7.21215 21.6539 7.78241 20.8938 9.0404 20.7166H12.9663C15.7659 20.7166 17.577 22.4768 17.5798 25.3257C17.577 28.2517 15.8118 29.9833 12.9663 29.9833V29.9862ZM7.21215 11.4814V9.67546C7.21215 8.09529 7.88273 7.34378 9.35278 7.24663H12.2987C14.8232 7.24663 16.3363 8.7525 16.3363 11.2756C16.3363 13.1958 15.2989 15.4389 12.3903 15.4389H7.21215V11.4814ZM20.3137 18.3278L19.2734 17.7449L20.1818 16.9705C21.2393 16.0647 23.0074 14.0273 23.0074 10.5127C23.0074 5.12926 18.8236 1.6546 12.3445 1.6546H4.10869C3.18199 1.68829 2.30387 2.07623 1.65621 2.738C1.00855 3.39978 0.641042 4.28466 0.629883 5.20926V35.7554H12.4905C19.6918 35.7554 24.3398 31.8464 24.3398 25.7915C24.3398 22.5311 22.8383 19.7451 20.3137 18.3278Z" fill="#2F2D2D"/>
<path d="M263.139 10.6725C261.679 10.6779 260.24 11.0101 258.926 11.6446C257.613 12.2792 256.459 13.1999 255.55 14.3386L255.04 14.9844L254.639 14.2615C253.327 11.8812 251.074 10.6725 247.942 10.6725C244.656 10.6725 242.452 12.5013 241.429 13.5871L240.758 14.31L240.5 13.3585C240.128 11.9869 238.904 11.2354 237.053 11.2354H234.081L234.053 35.8666H240.801V24.994C240.801 24.0397 240.922 23.0995 241.16 22.1137C241.804 19.4849 243.575 16.6589 246.552 16.9418C248.386 17.1189 249.286 18.5334 249.286 21.2651V35.8666H256.084V24.994C256.084 23.8025 256.195 22.911 256.465 22.0194C257.009 19.5106 258.86 16.9389 261.732 16.9389C263.812 16.9389 264.58 18.1105 264.58 21.2651V32.2662C264.58 34.7522 265.692 35.8666 268.188 35.8666H271.363L271.369 20.1421C271.369 13.8586 268.595 10.6725 263.139 10.6725ZM201.717 27.3143C201.697 27.34 198.794 30.3918 194.969 30.3918C191.484 30.3918 187.965 28.2601 187.965 23.5024C187.965 19.3934 190.693 16.5217 194.602 16.5217C195.869 16.5217 197.313 16.9732 197.539 17.7361L197.571 17.8647C197.715 18.39 198.029 18.853 198.465 19.1821C198.9 19.5112 199.432 19.6879 199.978 19.6849L203.675 19.6906V16.4674C203.675 12.2155 198.25 10.6725 194.602 10.6725C186.796 10.6725 181.134 16.0902 181.134 23.5539C181.134 31.0118 186.733 36.4238 194.459 36.4238C201.159 36.4238 204.804 32.0319 204.838 31.9891L205.033 31.749L202.104 26.9057L201.717 27.3143Z" fill="#2F2D2D"/>
</g>
<defs>
<clipPath id="clip0_14_320">
<rect width="272" height="46" fill="white"/>
</clipPath>
</defs>
</svg>
