<svg width="220" height="62" viewBox="0 0 220 62" fill="none" xmlns="http://www.w3.org/2000/svg">
<g clip-path="url(#clip0_14_300)">
<path d="M105.747 48.4993H98.9082C98.8649 48.4993 98.8649 48.4993 98.8433 48.4777L92.9564 41.3274L87.0695 48.4777C87.0479 48.4993 87.0263 48.4993 87.0046 48.4993H81.529C81.4857 48.4993 81.464 48.4777 81.4424 48.4562C81.4424 48.4347 81.4424 48.3916 81.464 48.37L90.1428 37.7737L81.5722 27.285C81.5506 27.242 81.5506 27.2204 81.5506 27.1774C81.5722 27.1558 81.5939 27.1343 81.6155 27.1343H88.4547C88.4763 27.1343 88.498 27.1558 88.5196 27.1774L93.6923 33.5524L98.9515 27.1774C98.9731 27.1558 98.9948 27.1343 99.0164 27.1343H104.579C104.6 27.1343 104.644 27.1558 104.665 27.1774C104.687 27.2204 104.665 27.242 104.644 27.285L96.5275 36.9984L105.834 48.37C105.856 48.3916 105.856 48.4347 105.856 48.4562C105.812 48.4993 105.791 48.4993 105.747 48.4993Z" fill="#2F2D2D"/>
<path d="M142.735 30.8815C139.705 30.8815 137.649 32.7122 137.043 35.8781H147.345V35.6628C147.345 33.1429 145.462 30.8815 142.735 30.8815ZM152.647 39.1518C152.626 39.1733 152.604 39.1949 152.583 39.1949H136.935C137.259 42.8132 139.618 44.8807 143.449 44.8807C145.808 44.8807 148.319 44.0839 151.847 42.2101C151.912 42.167 151.977 42.2316 151.977 42.2963V47.0775C151.977 47.1206 151.955 47.1421 151.933 47.1421C148.644 48.5205 145.332 49.4682 142.735 49.4682C136.004 49.4682 131.113 44.5792 131.113 37.8596C131.113 31.1399 136.004 26.251 142.735 26.251C148.882 26.251 152.821 30.3646 152.821 36.0289C152.821 36.955 152.669 39.0872 152.647 39.1518Z" fill="#2F2D2D"/>
<path d="M184.419 22.6972C182.493 22.6972 180.935 21.168 180.935 19.2943C180.935 17.3559 182.493 15.7837 184.419 15.7837C186.345 15.7837 187.904 17.3559 187.904 19.2943C187.904 21.168 186.345 22.6972 184.419 22.6972ZM181.605 48.4988C181.541 48.4988 181.519 48.4773 181.519 48.4127V27.1985C181.519 27.1554 181.541 27.1123 181.584 27.1123H187.233C187.276 27.1123 187.298 27.1554 187.298 27.1985V48.4127C187.298 48.4773 187.254 48.4988 187.211 48.4988H181.605Z" fill="#2F2D2D"/>
<path d="M116.092 45.3115C115.075 45.3115 114.036 45.1607 112.824 44.8592L112.846 31.2476C114.253 30.7953 115.465 30.6015 116.677 30.6015C120.594 30.6015 123.213 33.466 123.213 37.7519C123.213 42.3393 120.421 45.3115 116.092 45.3115ZM117.629 26.251C116.027 26.251 114.426 26.531 112.738 27.1125H107.11C107.067 27.1125 107.024 27.1555 107.024 27.1986V61.9813C108.712 61.7444 110.79 61.1414 112.824 59.7199V49.1451C114.209 49.339 115.356 49.4682 116.46 49.4682C124.165 49.4682 129.143 44.8807 129.143 37.7734C129.143 30.9892 124.403 26.251 117.629 26.251Z" fill="#2F2D2D"/>
<path d="M171.325 43.5452C169.572 44.4713 167.992 44.9021 166.52 44.9021C163.036 44.9021 160.936 42.4468 160.936 38.3332C160.936 33.595 163.599 30.5152 167.732 30.5152C168.879 30.5152 169.983 30.7952 171.325 31.3982V43.5452ZM171.325 15.8914V26.9831C169.68 26.5092 168.23 26.2939 166.758 26.2939C160.049 26.2939 155.006 31.312 155.006 37.9886C155.006 44.6221 159.465 49.4464 165.611 49.4464C167.732 49.4464 169.724 48.908 172.061 47.7235V49.6403C173.598 49.3388 175.372 48.7357 177.125 47.4865V13.6084C175.416 13.8453 173.381 14.4268 171.325 15.8914Z" fill="#2F2D2D"/>
<path d="M206.884 43.5022C205.174 44.4714 203.724 44.9452 202.426 44.9452C198.682 44.9452 196.452 42.49 196.452 38.3764C196.452 33.7028 199.093 30.5583 203.01 30.5583C204.049 30.5583 205.326 30.9675 206.884 31.786V43.5022ZM212.684 26.8539C212.684 26.7247 212.576 26.617 212.446 26.617H207.88C207.75 26.617 207.62 26.7247 207.62 26.8539V27.6293H207.512C205.412 26.7032 203.594 26.2939 201.841 26.2939C195.522 26.2939 190.565 31.506 190.565 38.1825C190.565 44.9237 195.002 49.4465 201.603 49.4465C203.356 49.4465 205.629 49.3173 207.75 46.9051V49.6404C209.243 49.3173 211.018 48.6927 212.684 47.4866V26.8539Z" fill="#2F2D2D"/>
<path d="M65.9025 43.2011H80.0786C79.8621 44.7733 79.3211 46.6255 78.1091 48.4993H63.3702C61.5739 48.4993 60.0805 47.0994 59.9074 45.3548C59.9074 45.3333 59.8857 45.3118 59.8857 45.2687V17.4425C59.8857 17.421 59.9074 17.3994 59.9074 17.3779C60.0805 15.6118 61.5739 14.2119 63.3702 14.2119H80.0569C79.8405 15.7841 79.2994 17.6794 78.0658 19.5532H65.9025V27.1343H77.9576C78.0008 27.1343 78.0441 27.1774 78.0441 27.2204V32.4755C78.0441 32.5186 78.0008 32.5617 77.9576 32.5617H65.9025V43.2011Z" fill="#2F2D2D"/>
<path d="M48.1552 48.9516C46.7485 48.9516 45.8827 47.8532 45.8827 46.5178C45.8827 45.0964 46.8783 44.0841 48.1552 44.0841C49.4105 44.0841 50.4061 45.0748 50.4061 46.5178C50.4061 47.9608 49.4105 48.9516 48.1552 48.9516ZM48.1552 43.8257C46.7268 43.8257 45.4932 44.9025 45.4932 46.5178C45.4932 48.047 46.597 49.21 48.1552 49.21C49.562 49.21 50.7957 48.1331 50.7957 46.5178C50.7957 44.9025 49.5837 43.8257 48.1552 43.8257Z" fill="#2F2D2D"/>
<path d="M47.5276 46.3023V45.3116H48.1985C48.5448 45.3116 48.9344 45.3546 48.9344 45.7638C48.9344 46.2592 48.5664 46.2807 48.1552 46.2807C48.1336 46.3023 47.5276 46.3023 47.5276 46.3023ZM49.4105 45.8284C49.4105 45.1823 49.0209 44.9023 48.2418 44.9023H47.0298V48.0899H47.5492V46.733H48.047L48.8694 48.0899H49.4754L48.5881 46.6899C49.0642 46.6469 49.4105 46.41 49.4105 45.8284Z" fill="#2F2D2D"/>
<path d="M217.359 30.6449C215.953 30.6449 215.087 29.5465 215.087 28.2111C215.087 26.7897 216.082 25.7774 217.359 25.7774C218.615 25.7774 219.61 26.7682 219.61 28.2111C219.61 29.6541 218.615 30.6449 217.359 30.6449ZM217.359 25.5405C215.931 25.5405 214.697 26.6174 214.697 28.2327C214.697 29.7618 215.801 30.9248 217.359 30.9248C218.766 30.9248 220 29.848 220 28.2327C220 26.5959 218.766 25.5405 217.359 25.5405Z" fill="#2F2D2D"/>
<path d="M216.711 27.9956V27.0264H217.381C217.728 27.0264 218.117 27.0695 218.117 27.4787C218.117 27.974 217.749 27.9956 217.338 27.9956H216.711ZM218.615 27.5433C218.615 26.8972 218.226 26.6172 217.446 26.6172H216.234V29.8047H216.754V28.4479H217.252L218.074 29.8047H218.68L217.793 28.4048C218.247 28.3617 218.615 28.1248 218.615 27.5433Z" fill="#2F2D2D"/>
<path d="M29.8672 19.5316L28.85 16.6456L20.1063 5.03699L21.6646 4.64932L36.7064 17.5932L45.5583 15.0734C46.5972 14.8149 47.7875 14.7503 48.6749 14.7503C45.9046 8.78448 40.7969 3.87398 34.0876 1.50488C20.8205 -3.21179 6.21155 3.70168 1.4934 16.9256C0.0216816 21.0177 -0.302962 25.239 0.303039 29.2449L21.4914 21.9222L29.8672 19.5316Z" fill="#2F2D2D"/>
<path d="M49.6273 17.0332C48.8481 17.5286 47.701 18.1962 46.5756 18.5624L37.702 21.0822L31.7935 39.992L30.2569 40.4873L31.5122 26.0573L30.8196 23.0636L22.5087 25.4327L0.519531 30.5371C2.27261 38.9366 8.24604 46.2808 16.9681 49.3607C30.2569 54.0773 44.8442 47.1639 49.584 33.94C51.6184 28.2757 51.4885 22.3314 49.6273 17.0332Z" fill="#2F2D2D"/>
<path d="M30.7977 23.0418L31.4903 26.0355L30.235 40.4655L31.7717 39.9701L37.6802 21.0604L46.5538 18.5405C47.6792 18.1744 48.8263 17.5283 49.6054 17.0114C49.324 16.236 49.021 15.4822 48.6748 14.7284C47.7658 14.7284 46.597 14.7715 45.5582 15.0515L36.7062 17.5714L21.6644 4.62744L20.1061 5.01511L28.8282 16.6237L29.8454 19.5097L21.4696 21.9003L0.28125 29.223C0.346179 29.6538 0.43275 30.1061 0.519322 30.5368L22.4869 25.3894L30.7977 23.0418Z" fill="#FBC108"/>
</g>
<defs>
<clipPath id="clip0_14_300">
<rect width="220" height="62" fill="white"/>
</clipPath>
</defs>
</svg>
