<svg width="314" height="63" viewBox="0 0 314 63" fill="none" xmlns="http://www.w3.org/2000/svg">
<path d="M81.2597 19.2925V32.7091H96.8971V19.2925H101.104V51.377H96.8971V36.3274H81.2597V51.377H77.085V19.2925H81.2597Z" fill="#2F2D2D"/>
<path d="M128.074 39.6736C128.074 48.191 122.142 51.9053 116.532 51.9053C110.245 51.9053 105.409 47.3265 105.409 40.0418C105.409 32.3409 110.487 27.8101 116.903 27.8101C123.577 27.8101 128.074 32.6131 128.074 39.6736ZM109.665 39.8978C109.665 44.9569 112.599 48.7674 116.725 48.7674C120.756 48.7674 123.77 45.0051 123.77 39.8018C123.77 35.8953 121.804 30.9481 116.822 30.9481C111.825 30.9481 109.665 35.527 109.665 39.8978Z" fill="#2F2D2D"/>
<path d="M132.281 34.5663C132.281 32.1968 132.211 30.2436 132.088 28.3383H135.78L135.973 32.0527H136.118C137.407 29.8593 139.568 27.8101 143.388 27.8101C146.564 27.8101 148.966 29.7152 149.966 32.4369H150.059C150.768 31.1401 151.687 30.1475 152.638 29.4271C154.041 28.3865 155.572 27.8101 157.78 27.8101C160.843 27.8101 165.406 29.8113 165.406 37.8163V51.377H161.279V38.3287C161.279 33.9099 159.651 31.2362 156.25 31.2362C153.848 31.2362 151.978 32.9973 151.252 35.0466C151.075 35.623 150.929 36.3754 150.929 37.1439V51.377H146.802V37.5762C146.802 33.9099 145.174 31.2362 141.966 31.2362C139.322 31.2362 137.404 33.3336 136.727 35.4309C136.485 36.0554 136.389 36.7597 136.389 37.4801V51.377H132.278L132.281 34.5663Z" fill="#2F2D2D"/>
<path d="M173.599 40.41C173.692 46.1897 177.419 48.5591 181.723 48.5591C184.802 48.5591 186.656 48.0308 188.268 47.3424L189.01 50.4163C187.478 51.0888 184.899 51.9053 181.127 51.9053C173.84 51.9053 169.487 47.1023 169.487 40.0097C169.487 32.9172 173.695 27.3457 180.595 27.3457C188.317 27.3457 190.364 34.0859 190.364 38.4086C190.364 39.2892 190.282 39.9617 190.219 40.41H173.599ZM186.221 37.336C186.267 34.6303 185.092 30.4036 180.256 30.4036C175.903 30.4036 174.001 34.3741 173.646 37.336H186.221Z" fill="#2F2D2D"/>
<path d="M200.053 41.082L196.619 51.3767H192.218L203.422 18.6519H208.548L219.8 51.3767H215.254L211.74 41.082H200.053ZM210.853 37.784L207.629 28.354C206.887 26.2247 206.404 24.2714 205.92 22.3822H205.803C205.32 24.3194 204.788 26.3207 204.143 28.306L200.919 37.784H210.853Z" fill="#2F2D2D"/>
<path d="M224.04 27.874L227.167 39.8176C227.861 42.4433 228.489 44.8608 228.94 47.2944H229.085C229.617 44.9249 230.407 42.3953 231.181 39.8176L235.05 27.874H238.66L242.336 39.6255C243.206 42.4433 243.9 44.9249 244.432 47.2944H244.577C244.965 44.9249 245.609 42.4433 246.399 39.6736L249.768 27.874H254.024L246.399 51.377H242.481L238.854 40.1539C238.032 37.5442 237.339 35.2066 236.758 32.4369H236.665C236.085 35.2547 235.343 37.6882 234.505 40.2018L230.7 51.377H226.783L219.642 27.874H224.04Z" fill="#2F2D2D"/>
<path d="M273.627 45.7415C273.627 47.7908 273.709 49.776 274.014 51.3771H270.097L269.759 48.4151H269.614C268.292 50.2723 265.745 51.9214 262.376 51.9214C257.572 51.9214 255.137 48.5592 255.137 45.1651C255.137 39.4814 260.215 36.3754 269.372 36.4235V35.9272C269.372 33.99 268.823 30.4997 263.987 30.4997C261.779 30.4997 259.49 31.1722 257.83 32.2449L256.846 29.427C258.796 28.1622 261.633 27.3457 264.616 27.3457C271.854 27.3457 273.627 32.2449 273.627 36.9519V45.7415ZM269.468 39.3854C264.761 39.289 259.44 40.1058 259.44 44.6847C259.44 47.4385 261.295 48.7513 263.503 48.7513C266.582 48.7513 268.532 46.8141 269.209 44.8289C269.371 44.3806 269.467 43.9002 269.467 43.468L269.468 39.3854Z" fill="#2F2D2D"/>
<path d="M280.607 27.874L285.781 41.7548C286.33 43.3078 286.91 45.165 287.297 46.5739H287.39C287.842 45.165 288.325 43.3719 288.906 41.6588L293.597 27.874H298.159L291.694 44.6207C288.615 52.6898 286.52 56.18 283.586 58.6936C281.474 60.5508 279.378 61.2712 278.298 61.4633L277.219 57.8771C278.299 57.541 279.717 56.8525 280.991 55.7798C282.168 54.8672 283.635 53.2021 284.618 51.0248C284.812 50.5924 284.956 50.2402 284.956 50.0002C284.956 49.76 284.839 49.4237 284.649 48.8955L275.896 27.8741L280.607 27.874Z" fill="#2F2D2D"/>
<path d="M307.915 30.7556C307.915 32.4846 306.512 33.8616 304.739 33.8616C302.966 33.8616 301.547 32.4846 301.547 30.7556C301.547 29.0264 302.966 27.6816 304.755 27.6816C306.512 27.6816 307.915 29.0264 307.915 30.7556ZM302.337 30.7556C302.337 32.1324 303.385 33.2211 304.755 33.2211C306.093 33.2374 307.125 32.1324 307.125 30.7876C307.125 29.4107 306.093 28.306 304.723 28.306C303.385 28.306 302.337 29.4106 302.337 30.7556ZM304.239 32.3565H303.53V29.2826C303.82 29.235 304.208 29.1862 304.723 29.1862C305.304 29.1862 305.577 29.2826 305.772 29.4263C305.966 29.5542 306.094 29.7784 306.094 30.0828C306.094 30.4668 305.82 30.7072 305.466 30.8192V30.8517C305.756 30.9482 305.918 31.1879 305.999 31.6043C306.092 32.0685 306.176 32.2446 306.241 32.3567H305.482C305.389 32.2452 305.321 31.9887 305.24 31.6043C305.182 31.2842 304.982 31.14 304.596 31.14H304.242L304.239 32.3565ZM304.274 30.6275H304.613C305 30.6275 305.321 30.4996 305.321 30.1791C305.321 29.891 305.112 29.6989 304.661 29.6989C304.466 29.6989 304.337 29.7314 304.273 29.7465L304.274 30.6275Z" fill="#2F2D2D"/>
<path d="M50.2447 1.53711H22.6622L6.39653 20.6213L12.1192 20.2208V40.8579L7.75099 41.4983C7.75099 41.4983 5.63887 41.8824 6.1709 44.108C6.62245 45.7411 8.29862 45.741 8.29862 45.741L12.1192 45.1166V50.592L39.5404 55.5232L61.1097 50.6401L61.0747 20.653L66.9745 20.1248L50.2447 1.53711ZM44.6505 24.2396L50.6474 23.6953V31.5403L44.6184 32.3247L44.6505 24.2396ZM14.1342 49.1034V44.7967L25.9994 42.8434C25.9994 42.8434 28.0463 42.8597 27.8851 40.57C27.74 38.5367 25.5639 38.8889 25.5639 38.8889L14.1342 40.57V19.6607L26.225 5.47569L39.5404 20.2851V53.6823L14.1342 49.1034ZM44.6184 42.9554L44.6298 34.8544L50.6267 34.0537L50.6739 41.8988L44.6184 42.9554ZM58.063 40.602L53.0979 41.4666V33.7016L58.063 32.9813V40.602ZM53.0979 31.22V23.4391L58.063 22.9588L58.0745 30.5636L53.0979 31.22Z" fill="#2F2D2D"/>
<path d="M31.7864 20.8775C30.3839 19.2766 28.4653 18.2358 26.3535 18.2358C26.2365 18.2358 26.1279 18.2359 26.0308 18.2521C23.9352 18.3486 22.0978 19.4689 20.8243 21.1179C19.5507 22.767 18.793 24.9764 18.793 27.3779C18.793 27.5702 18.8044 27.7784 18.8044 27.9864C18.9495 30.452 19.8359 32.6613 21.2384 34.2783C22.6409 35.8954 24.5594 36.92 26.6713 36.92H27.0097C29.1054 36.8084 30.927 35.7032 32.2005 34.0542C33.4741 32.4051 34.2318 30.1958 34.2318 27.7942C34.2318 27.586 34.2314 27.3938 34.2197 27.1858C34.091 24.7203 33.188 22.5109 31.7856 20.8778M30.9795 33.1095C29.9314 34.4704 28.5131 35.3029 26.9333 35.383C26.8514 35.383 26.7555 35.3993 26.6748 35.3993C25.079 35.3993 23.5801 34.6307 22.4194 33.2859C21.2589 31.941 20.4688 30.0518 20.3559 27.9064C20.3559 27.7302 20.3438 27.5544 20.3438 27.3782C20.3438 25.2968 21.0046 23.4076 22.0524 22.0468C23.1005 20.6859 24.5195 19.8534 26.0993 19.7734H26.3564C27.9522 19.7734 29.4514 20.5418 30.6282 21.8867C31.7723 23.2316 32.5627 25.1208 32.6917 27.2661C32.6917 27.4424 32.7031 27.6181 32.7031 27.7945C32.7031 29.8758 32.0428 31.765 30.9788 33.1099" fill="#2F2D2D"/>
<path d="M23.8548 27.7458C23.7097 25.0561 24.5801 22.7507 25.9182 21.8701C23.6613 22.0303 21.9686 24.6879 22.1298 27.8579C22.3076 31.044 24.2896 33.5415 26.5787 33.4294V33.3969C25.1439 32.6765 23.9998 30.451 23.8548 27.7453" fill="#2F2D2D"/>
</svg>
