<svg width="203" height="74" viewBox="0 0 203 74" fill="none" xmlns="http://www.w3.org/2000/svg">
<path d="M175.359 25.8096V25.9002C187.017 26.8817 190.441 35.1715 190.275 39.9884C190.004 53.9408 179.205 65.1751 161.786 66.5492V66.6247C180.924 65.4771 192.13 55.5716 192.371 41.3776C192.341 36.153 188.541 26.5797 175.359 25.8096Z" fill="#2F2D2D"/>
<path d="M161.786 66.3832C168.893 65.9064 175.566 62.785 180.492 57.6325C185.417 52.4801 188.24 45.6693 188.405 38.539C188.405 34.1298 185.389 26.8818 175.254 26.0664V26.1419C183.639 27.0328 186.595 33.1483 186.535 37.1498C186.293 50.6038 175.872 64.8582 161.876 66.2927L161.786 66.3832Z" fill="#2F2D2D"/>
<path d="M161.906 66.1267C174.288 64.8432 184.257 48.8976 184.529 35.6852C184.529 32.1065 182.251 27.1084 175.178 26.3081V26.3987C180.743 27.2443 182.719 31.125 182.719 34.3111C182.493 47.2517 172.78 64.6167 162.117 66.021L161.906 66.1267Z" fill="#2F2D2D"/>
<path d="M162.072 65.7792V65.8849C171.121 64.5712 180.457 45.5302 180.683 32.8462C180.745 31.2738 180.192 29.7391 179.142 28.5687C178.091 27.3983 176.626 26.6847 175.057 26.5797V26.6703C176.162 26.8563 177.156 27.4557 177.836 28.3472C178.517 29.2386 178.833 30.3557 178.722 31.4721C178.375 43.8692 169.326 64.4353 162.072 65.7792ZM156.386 60.8566C156.597 48.9277 165.993 27.9689 172.976 26.5495V26.4438C164.229 27.7424 154.561 47.1157 154.335 59.407C154.276 60.1987 154.376 60.9943 154.629 61.7467C154.882 62.4991 155.284 63.1929 155.81 63.7871C156.336 64.3812 156.975 64.8637 157.691 65.2059C158.406 65.5481 159.183 65.743 159.976 65.7792V65.6886C159.421 65.6111 158.888 65.4241 158.406 65.1384C157.925 64.8527 157.505 64.474 157.171 64.0244C156.837 63.5748 156.596 63.0633 156.461 62.5194C156.326 61.9756 156.301 61.4104 156.386 60.8566Z" fill="#2F2D2D"/>
<path d="M152.541 58.0178C152.767 45.4093 162.887 27.7122 173.172 26.3079V26.2173C161.107 27.5008 150.806 43.6879 150.55 56.5682C150.55 60.1619 152.903 65.4771 159.9 66.0509V65.9603C154.441 65.2506 152.48 61.2038 152.541 58.0178Z" fill="#2F2D2D"/>
<path d="M148.694 55.1788C148.921 41.9664 159.674 27.4704 173.293 26.0359V25.9453C166.244 26.5386 159.653 29.6869 154.757 34.7995C149.862 39.9122 146.998 46.6377 146.704 53.7141C146.704 58.1233 149.72 65.6129 159.87 66.2773V66.1866C151.123 65.4015 148.634 59.135 148.694 55.1788Z" fill="#2F2D2D"/>
<path d="M144.848 52.3404C145.09 38.4636 157.035 27.1084 173.413 25.7947V25.7041C155.074 26.8366 143.069 36.7422 142.828 50.8757C142.722 56.1003 146.538 65.7642 159.704 66.5192C148.212 65.6132 144.773 57.1573 144.848 52.3404ZM135.528 26.0061C129.209 25.1454 121.577 28.86 117.279 35.3832L117.355 35.4889C121.427 29.6301 128.304 26.142 133.944 26.9272C137.745 27.4406 140.354 30.3247 139.826 35.9872C138.484 50.4076 126.343 66.6098 106.918 66.5645V66.6702C115.583 67.0039 124.05 64.0226 130.599 58.3321C137.149 52.6417 141.289 44.6686 142.179 36.0325C142.707 29.7811 139.811 26.595 135.528 26.0061Z" fill="#2F2D2D"/>
<path d="M137.549 35.9266C138.017 30.9587 135.8 28.3766 132.316 27.9085C127.294 27.229 121.185 30.2943 117.49 35.685L117.566 35.7756C120.959 31.1248 126.389 28.2256 130.747 28.8296C133.764 29.2373 135.754 31.5023 135.272 35.8813C134.111 48.2934 122.286 65.3564 106.979 66.3077C124.081 66.2926 136.282 49.4561 137.549 35.9266Z" fill="#2F2D2D"/>
<path d="M107.189 66.0058V66.0964C121.442 64.3901 131.999 47.0554 133.13 35.8211C133.462 32.1367 131.773 30.1737 129.254 29.7811C125.453 29.2526 120.718 31.8196 117.792 35.9267V36.0174C120.582 32.4085 124.473 30.2643 127.55 30.6871C129.722 30.9891 131.049 32.635 130.762 35.6399C129.812 45.8776 120.114 63.3029 107.189 66.0058Z" fill="#2F2D2D"/>
<path d="M107.355 65.6586V65.7945C117.913 62.9557 127.701 44.6546 128.47 35.5946C128.681 33.2843 127.655 31.9253 125.966 31.6988C123.448 31.3515 120.25 33.2088 117.913 36.2288V36.3194C119.858 33.994 122.437 32.3481 124.322 32.6048C125.544 32.7709 126.343 33.843 126.177 35.5493C125.589 43.4617 116.54 61.7326 107.355 65.6586ZM105.696 55.3755C104.574 57.8396 103.773 60.438 103.313 63.1067C103.329 63.6109 103.477 64.1021 103.741 64.5313C104.006 64.9606 104.379 65.3128 104.822 65.5529C104.967 65.6262 105.118 65.6868 105.274 65.7341V65.5982C105.06 65.3904 104.901 65.1325 104.812 64.8478C104.722 64.5631 104.705 64.2605 104.761 63.9674C105.385 61.2589 106.3 58.6261 107.491 56.1154L127.097 6.28564L124.337 6.82924C124.488 7.46344 119.195 20.4947 118.983 21.144L105.696 55.3755Z" fill="#2F2D2D"/>
<path d="M102.092 53.82C101.095 56.211 100.377 58.7088 99.9504 61.2642C99.7091 63.9973 102.092 65.4771 105.289 65.9603V65.8697C103.102 65.4771 101.413 64.3597 101.609 62.2457C102.112 59.6567 102.88 57.1266 103.902 54.6958L116.963 21.0531C117.279 20.1622 122.241 8.14266 121.487 7.37256L118.803 7.91616V8.06716C118.908 10.9965 115.515 19.0146 114.821 20.9021L102.092 53.82Z" fill="#2F2D2D"/>
<path d="M110.749 20.7362L98.4425 52.28C97.4588 54.5034 96.7595 56.8422 96.3612 59.2411C96.0294 63.0915 99.1815 65.7491 105.078 66.1568C103.863 66.0226 102.668 65.7438 101.519 65.3263C100.441 65.0644 99.4973 64.4152 98.8661 63.5021C98.235 62.5891 97.9608 61.4757 98.0956 60.3736C98.5214 57.8646 99.2612 55.4193 100.298 53.0954L112.846 20.8117C113.479 19.1054 117.068 10.9515 116.209 8.45996L113.615 8.97336V9.12436C115.032 11.0723 111.579 18.6222 110.749 20.7362Z" fill="#2F2D2D"/>
<path d="M106.285 21.3853L94.9133 50.7396C93.9747 52.8235 93.335 55.0298 93.013 57.293C92.6058 62.1098 96.7834 66.0509 105.078 66.3529C98.1257 65.9603 94.3402 62.6685 94.7172 58.3198C95.0661 55.9934 95.7361 53.7269 96.708 51.5852L108.457 21.3853C109.512 18.622 112.634 11.8421 110.945 9.57715L108.276 10.1207V10.2717C110.086 12.7632 107.491 18.3653 106.285 21.3853Z" fill="#2F2D2D"/>
<path d="M104.958 66.5342C95.5919 66.1265 90.8713 61.5512 91.3841 56.2361C91.6632 54.1114 92.2421 52.0371 93.1034 50.0753L103.947 22.0196C105.305 18.5164 107.838 13.2314 105.847 10.6191L103.389 11.1325V11.2835C105.486 13.6391 103.54 17.5047 102.107 21.4156L91.3087 49.1995C90.4377 51.1124 89.8727 53.1507 89.6346 55.2395C89.1218 61.0227 94.2647 66.2624 104.927 66.5795L104.958 66.5342ZM92.6208 31.1702C92.4247 27.4405 90.2228 25.7342 87.5533 25.7342C82.697 25.7342 78.5043 29.5696 75.865 34.7941V32.952C75.6539 28.8901 72.8487 25.7342 67.8566 25.7342C57.2994 25.7342 52.0962 32.6953 50.3618 40.5774H50.4523C52.2923 33.1936 57.2089 26.5345 66.6953 26.5345C67.6036 26.4534 68.5188 26.5607 69.3839 26.8495C70.2489 27.1384 71.0452 27.6026 71.7231 28.2133C72.4009 28.824 72.9458 29.568 73.3237 30.3988C73.7016 31.2297 73.9044 32.1297 73.9195 33.0426C74.1759 37.8292 72.5923 41.5589 70.9031 45.8624L63.2114 65.9906H65.2626L72.9542 46.0285C73.467 44.6544 73.9496 43.3709 74.387 42.1327C75.8952 38.9617 77.7804 35.7152 78.7607 35.7152C79.4846 35.7152 79.7109 36.3343 79.7561 36.893C79.7646 39.8981 78.9789 42.8519 77.4788 45.4547L77.5692 45.5453C79.9089 42.9027 81.3043 39.5561 81.5357 36.0323C81.5357 34.9904 81.023 34.2505 80.0276 34.2505C78.3837 34.2505 76.2873 37.6329 74.749 41.2116C74.9299 40.6378 75.0808 40.064 75.2316 39.5053C76.8755 35.9266 79.1528 32.8765 81.2643 32.8765C82.5613 32.8765 83.3455 33.7673 83.421 35.232C83.6019 38.7956 80.4046 43.99 77.7201 45.6963L77.8106 45.7869C81.4603 44.1561 85.4721 38.7956 85.2458 34.4166C85.1403 32.4688 84.1147 31.3967 82.4859 31.3967C79.8013 31.3967 77.2073 34.5223 75.4126 38.3879C75.4126 38.0859 75.5332 37.7839 75.5785 37.4668C77.5843 33.3144 80.5253 30.0226 83.798 30.0226C85.5776 30.0226 86.935 31.2306 87.0557 33.5862C87.3422 38.7805 82.4406 44.3071 78.0066 45.9228L78.0971 46.0134C83.5416 44.6242 89.2274 38.7805 88.9107 32.7708C88.7599 29.932 87.1461 28.5579 85.0498 28.5579C81.2794 28.573 77.9161 31.9554 75.8198 36.4853V35.7454C78.2178 30.8833 82.0033 27.1989 86.377 27.1989C88.7297 27.1989 90.6753 28.7089 90.9015 32.0007C91.2635 38.9013 84.8688 44.745 78.3535 46.2097L78.444 46.2852C85.9849 45.1376 93.028 38.8862 92.6208 31.1702V31.1702Z" fill="#2F2D2D"/>
<path d="M72.0342 33.1934C72.0199 32.3722 71.8385 31.5626 71.5011 30.8139C71.1637 30.0653 70.6774 29.3934 70.0718 28.8394C69.4662 28.2854 68.7541 27.8608 67.979 27.5917C67.204 27.3226 66.3823 27.2146 65.5641 27.2743C57.1485 27.2743 52.3073 33.5407 50.603 40.5773H50.7086C52.5787 34.0239 56.8619 28.0897 64.3877 28.0897C65.1099 28.0225 65.8382 28.1068 66.526 28.3372C67.2138 28.5676 67.8461 28.9391 68.3826 29.4278C68.919 29.9166 69.3478 30.5119 69.6415 31.1759C69.9353 31.8399 70.0875 32.5579 70.0886 33.284C70.2998 37.2553 68.4296 41.6343 66.9365 45.6207L59.0035 65.9905H61.115L68.8821 45.7868C70.5411 41.6343 72.2604 37.4969 72.0342 33.1934Z" fill="#2F2D2D"/>
<path d="M68.279 33.3598C68.2818 32.7276 68.1524 32.1018 67.899 31.5227C67.6457 30.9436 67.2741 30.424 66.8082 29.9974C66.3423 29.5707 65.7923 29.2464 65.1936 29.0453C64.595 28.8442 63.9609 28.7708 63.3322 28.8298C56.7264 28.8298 52.6845 34.5376 50.9351 40.5927H51.0255C52.8806 34.9604 56.6812 29.6452 62.1709 29.6452C62.6965 29.6081 63.2242 29.6791 63.7213 29.8538C64.2185 30.0286 64.6747 30.3033 65.0618 30.6612C65.4489 31.0191 65.7588 31.4525 65.9723 31.9348C66.1858 32.4171 66.2985 32.938 66.3033 33.4655C66.4692 36.6214 64.2975 41.7403 62.8647 45.319L54.7055 65.9908H56.8923L64.9007 45.4549C66.3184 41.7252 68.4299 37.014 68.279 33.3598Z" fill="#2F2D2D"/>
<path d="M64.4331 33.6013C64.4368 33.1637 64.3492 32.7301 64.1758 32.3283C64.0023 31.9266 63.747 31.5656 63.4261 31.2685C63.1052 30.9713 62.7258 30.7446 62.3122 30.6029C61.8987 30.4611 61.4601 30.4075 61.0246 30.4454C56.5001 30.4454 52.8956 35.368 51.1762 40.5774H51.2818C53.0765 35.9267 56.1532 31.2457 59.8482 31.2457C60.1876 31.2062 60.5316 31.2407 60.8564 31.3469C61.1812 31.4531 61.4792 31.6284 61.73 31.8608C61.9807 32.0932 62.1783 32.3772 62.309 32.6933C62.4398 33.0094 62.5007 33.35 62.4875 33.6919C62.6233 36.1985 60.0895 41.8911 58.883 45.047L50.4976 65.9907H52.5939L60.8285 45.2131C62.2462 41.8911 64.5839 36.4854 64.4331 33.6013Z" fill="#2F2D2D"/>
<path d="M60.6321 33.8429C60.655 33.5906 60.6225 33.3363 60.5368 33.0979C60.4511 32.8596 60.3144 32.6429 60.1362 32.463C59.958 32.2832 59.7426 32.1445 59.5052 32.0568C59.2679 31.9691 59.0142 31.9345 58.762 31.9554C56.0925 31.9554 53.2119 36.1682 51.4775 40.5472H51.5831C53.3326 36.6514 56.0322 32.7557 57.6158 32.7557C58.2643 32.7557 58.6866 33.0879 58.7318 33.9033C58.8223 35.6096 55.987 42.0119 54.8408 44.7752L46.3045 65.9151H48.4159L56.8768 44.896C58.0682 41.9666 60.7377 35.8813 60.6321 33.8429ZM37.5722 51.7665L38.9295 48.9126L34.3296 25.4171C33.0477 18.8033 34.586 15.9192 39.7741 14.9226V14.832H34.9781C33.5906 15.5266 30.6497 17.6104 32.2936 25.402L37.5722 51.7665Z" fill="#2F2D2D"/>
<path d="M34.8576 57.4441L36.1999 54.6053L30.1672 25.2661C29.036 19.5734 29.5187 16.6138 31.4039 14.9226V14.832H28.1462C27.1508 16.9611 26.8492 19.0902 27.9954 24.7225L34.8576 57.4441ZM32.0825 63.1065L33.4248 60.298L25.884 24.647C24.5568 19.1053 24.8584 16.5685 25.4013 14.832H22.5207C22.4907 17.8305 22.8764 20.8186 23.6669 23.7108L32.0825 63.1065ZM19.8814 14.832H16.488V14.9226C17.9962 16.7648 18.4487 19.0147 19.6552 23.9826L28.7042 66.0057H30.7403L21.6912 23.8467C20.9095 20.8805 20.3051 17.8703 19.8814 14.832ZM13.0947 14.832H9.45996V14.9226C12.7779 16.2363 14.4068 18.758 15.7189 24.6621L24.6623 65.9906H26.6984L17.6946 24.4054C16.1412 17.1876 14.5123 15.8588 13.0947 14.832ZM59.3352 14.832C55.052 17.3386 52.5032 21.9743 47.1643 33.4654L47.3 33.5409C53.4684 21.9743 56.9825 17.3688 64.9456 14.9679V14.832H59.3352ZM46.8626 33.2389L46.9984 33.3295C52.0658 21.3854 53.393 18.0483 55.4592 14.9226V14.832H51.357V14.9528C51.7793 19.7395 50.1806 24.1487 46.8626 33.2389Z" fill="#2F2D2D"/>
<path d="M46.5912 33.0577L46.7269 33.1483C49.9393 22.4424 50.98 17.7161 48.1446 14.832H44.1479V14.9226C48.6725 16.5232 49.6075 21.0985 46.5912 33.0577ZM193.457 28.573V30.6115H193.155V28.573H192.281V28.2861H194.362V28.573H193.457ZM196.926 30.6115V28.6334L196.202 30.5813H195.855L195.207 28.6334V30.6115H194.92L195.01 28.2861H195.538L196.142 30.234L196.835 28.2861H197.318L197.408 30.6115H196.926Z" fill="#2F2D2D"/>
</svg>
